<svg viewBox="0 0 33.867 33.867" xmlns="http://www.w3.org/2000/svg"><defs><linearGradient id="a"><stop offset="0" stop-color="#00adf1" stop-opacity="1" class="stop-color-f6f600"></stop><stop offset="1" stop-color="#00adf1" stop-opacity="1" class="stop-color-f69134"></stop></linearGradient></defs><path d="M11.343 5.177c-1.076 0-4.32 1.316-4.902 1.579-.582.263-1.228 1.084-1.961 2.439-.734 1.355-1.323 2.939-2.28 5.269-.956 2.33-1.179 6.822-1.147 8.193.032 1.371.189 2.442 1.594 3.253 1.404.81 2.646 1.658 3.953 2.168 1.308.51 2.2.877 2.806.367.606-.51 1.005-1.403 1.005-1.403s.574-.797-.51-1.275c-1.084-.479-1.626-.814-1.579-1.308.048-.494.127-.765.398-.701.271.064.91 1.211 3.365 1.737s4.848.447 4.848.447 2.394.08 4.849-.447c2.455-.526 3.093-1.673 3.364-1.737.271-.064.35.207.398.7.048.495-.494.83-1.578 1.309-1.084.478-.51 1.275-.51 1.275s.399.892 1.005 1.403c.605.51 1.498.143 2.805-.367 1.307-.51 2.55-1.357 3.954-2.168 1.405-.811 1.562-1.882 1.594-3.253.032-1.37-.191-5.863-1.148-8.193-.956-2.33-1.546-3.914-2.28-5.269-.732-1.355-1.379-2.176-1.96-2.44-.582-.262-3.827-1.578-4.903-1.578-1.076 0-1.394.75-1.394.75l-.375.829s-2.52-.479-3.804-.48c-1.284 0-3.837.48-3.837.48l-.375-.83s-.318-.749-1.395-.749zm.117 9.948h.04c1.569 0 2.84 1.373 2.84 3.066 0 1.694-1.271 3.066-2.84 3.066s-2.84-1.372-2.84-3.066c-.001-1.677 1.247-3.043 2.8-3.066zm10.907 0h.04c1.553.023 2.8 1.39 2.8 3.066 0 1.694-1.271 3.066-2.84 3.066-1.57 0-2.84-1.372-2.84-3.066 0-1.693 1.27-3.066 2.84-3.066z" fill="#00adf1" fill-opacity="1" stroke="none" stroke-width="6.13236" stroke-linecap="butt" stroke-miterlimit="4" stroke-dasharray="none" stroke-dashoffset="0" stroke-opacity="1" paint-order="fill markers stroke" class="fill-00a1ff"></path><path d="M63.854 39.775A81.948 50.647 0 0 0 9.06 52.842c-.274.673-.454 1.116-.745 1.824-3.615 8.806-4.458 25.787-4.337 30.969.12 5.182.714 9.226 6.023 12.29 5.31 3.066 10.004 6.27 14.945 8.198 4.941 1.928 8.314 3.313 10.604 1.385 2.29-1.928 3.797-5.303 3.797-5.303s2.17-3.013-1.928-4.82c-4.097-1.808-6.146-3.074-5.965-4.942.18-1.867.48-2.891 1.504-2.65 1.024.241 3.436 4.578 12.715 6.566C54.953 98.348 64 98.05 64 98.05s9.047.299 18.326-1.69c9.28-1.988 11.69-6.325 12.715-6.566 1.024-.241 1.323.783 1.504 2.65.18 1.868-1.868 3.134-5.965 4.942-4.097 1.807-1.928 4.82-1.928 4.82s1.508 3.375 3.797 5.303c2.29 1.928 5.663.543 10.604-1.385 4.94-1.928 9.636-5.132 14.945-8.197 5.31-3.065 5.903-7.11 6.023-12.291.121-5.182-.722-22.163-4.337-30.969-.291-.708-.47-1.15-.745-1.822A81.948 50.647 0 0 0 64 39.775a81.948 50.647 0 0 0-.146 0zm-20.54 17.391h.15c5.93 0 10.737 5.188 10.737 11.588 0 6.4-4.807 11.59-10.736 11.59-5.93 0-10.738-5.19-10.738-11.59-.001-6.338 4.716-11.5 10.587-11.588zm41.221 0h.15c5.872.088 10.587 5.25 10.586 11.588 0 6.4-4.806 11.59-10.736 11.59-5.93 0-10.736-5.19-10.736-11.59 0-6.4 4.807-11.588 10.736-11.588z" transform="scale(.26458)" opacity="1" fill="#00adf1" stroke-width="20" stroke-linecap="square" stroke-miterlimit="0" paint-order="fill markers stroke" fill-opacity="1" class="fill-0066ff"></path></svg>