<svg viewBox="0 0 33.867 33.867" xmlns="http://www.w3.org/2000/svg"><defs><linearGradient id="a"><stop offset="0" stop-color="#00adf1" stop-opacity="1" class="stop-color-f6f600"></stop><stop offset="1" stop-color="#00adf1" stop-opacity="1" class="stop-color-f69134"></stop></linearGradient></defs><path d="M17.99 14.632s-2.127 2.457-6.525 4.12c-4.398 1.664-6.406 1.014-6.406 1.014s-2.256-.35.083 2.844c1.919 2.62 6.435 2.295 6.435 2.295s5.631.01 9.285-3.651c3.655-3.66 3.349-5.515 3.047-6.79-.301-1.274-5.92.168-5.92.168z" fill="#00adf1" fill-opacity="1" stroke="none" stroke-width="6.96616" stroke-linecap="round" stroke-linejoin="round" stroke-miterlimit="4" stroke-dasharray="none" stroke-opacity="1" paint-order="fill markers stroke" class="fill-01a9f4"></path><path d="M16.786 12.013s-2.912 1.731-7.811 1.931c-4.9.2-6.673-1.104-6.673-1.104s-2.117-1.088-.854 2.841c1.037 3.224 5.613 4.388 5.613 4.388s5.57 1.862 10.39-.558 5.128-4.356 5.249-5.716c.12-1.36-5.914-1.782-5.914-1.782z" fill="#00adf1" fill-opacity="1" stroke="none" stroke-width="7.2644" stroke-linecap="round" stroke-linejoin="round" stroke-miterlimit="4" stroke-dasharray="none" stroke-opacity="1" paint-order="fill markers stroke" class="fill-01c0f4"></path><path d="M23.667 3.013a7.204 7.204 0 0 0-7.039 8.701c-1.039-.015-3.812-.217-7.332-1.841-4.452-2.055-5.437-4.024-5.437-4.024S2.47 3.916 1.804 7.989c-.546 3.343 2.997 6.464 2.997 6.464s4.109 4.195 9.502 4.238c2.478.02 1.277 2.18-.427 3.638-6.806 5.822-7.732 4.854-9.744 4.683-1.05-.09-1.92 1.05.143 2.24 4.507 2.603 15.208 2.709 21.201-4.868 5.072-6.412 5.534-12.197 5.507-14.019.668-.369 1.267-.831 1.543-1.392.812-1.654-.311-1.458-.311-1.458l-1.273.074c.745-.566 1.442-1.259 1.631-2.003.454-1.786-.605-1.362-.605-1.362l-3.222.877a7.204 7.204 0 0 0-5.072-2.088Z" fill="#00adf1" fill-opacity="1" stroke="none" stroke-width="7.2644" stroke-linecap="round" stroke-linejoin="round" stroke-miterlimit="4" stroke-dasharray="none" stroke-opacity="1" paint-order="fill markers stroke" class="fill-01cdf4"></path></svg>