<svg class="border shadow-md" viewBox="0 0 961.84 480.92" xmlns="http://www.w3.org/2000/svg" preserveAspectRatio="none" style="width: 961.84px; height: 480.92px;"><rect class="bg" id="bg" x="0" y="0" width="961.84" height="480.92" fill="#ffffff"></rect><g transform="rotate(0 480.92 240.46)"><path id="-1" d="M -580.92 -18.09 S -392.00 -59.09
            0.00 -18.09 280.46 -42.14
            580.92 -18.09 861.38 -42.14
            1161.84 -18.09 1224.76 -59.09
            1742.76 -18.09 h 110 V 680.9200000000001 H -580.92 Z" fill="#0D1117"></path><path id="0" d="M -580.92 30.00 S -300.46 -7.00
            0.00 30.00 280.46 5.95
            580.92 30.00 861.38 -9.00
            1161.84 30.00 1435.76 -7.00
            1742.76 30.00 h 110 V 680.9200000000001 H -580.92 Z" fill="#0b0f14"></path><path id="1" d="M -580.92 78.09 S -300.46 54.05
            0.00 78.09 280.46 36.09
            580.92 78.09 861.38 54.05
            1161.84 78.09 1442.30 54.05
            1742.76 78.09 h 110 V 680.9200000000001 H -580.92 Z" fill="#090d11"></path><path id="2" d="M -580.92 126.18 S -300.46 102.14
            0.00 126.18 280.46 97.18
            580.92 126.18 764.84 96.18
            1161.84 126.18 1442.30 85.18
            1742.76 126.18 h 110 V 680.9200000000001 H -580.92 Z" fill="#070b0e"></path><path id="3" d="M -580.92 174.28 S -300.46 132.28
            0.00 174.28 76.92 150.23
            580.92 174.28 845.84 127.28
            1161.84 174.28 1442.30 145.28
            1742.76 174.28 h 110 V 680.9200000000001 H -580.92 Z" fill="#05090b"></path><path id="4" d="M -580.92 222.37 S -300.46 192.37
            0.00 222.37 280.46 198.32
            580.92 222.37 861.38 198.32
            1161.84 222.37 1424.76 176.37
            1742.76 222.37 h 110 V 680.9200000000001 H -580.92 Z" fill="#030708"></path><path id="5" d="M -580.92 270.46 S -300.46 246.41
            0.00 270.46 280.46 246.41
            580.92 270.46 762.84 227.46
            1161.84 270.46 1442.30 246.41
            1742.76 270.46 h 110 V 680.9200000000001 H -580.92 Z" fill="#010505"></path><path id="6" d="M -580.92 318.55 S -300.46 278.55
            0.00 318.55 280.46 294.51
            580.92 318.55 861.38 273.55
            1161.84 318.55 1279.76 294.51
            1742.76 318.55 h 110 V 680.9200000000001 H -580.92 Z" fill="#000302"></path><path id="7" d="M -580.92 366.64 S -300.46 342.60
            0.00 366.64 275.92 342.60
            580.92 366.64 836.84 327.64
            1161.84 366.64 1442.30 339.64
            1742.76 366.64 h 110 V 680.9200000000001 H -580.92 Z" fill="#000100"></path><path id="8" d="M -580.92 414.74 S -300.46 390.69
            0.00 414.74 180.92 390.69
            580.92 414.74 861.38 372.74
            1161.84 414.74 1442.30 369.74
            1742.76 414.74 h 110 V 680.9200000000001 H -580.92 Z" fill="#000000"></path><path id="9" d="M -580.92 462.83 S -405.00 438.78
            0.00 462.83 280.46 436.83
            580.92 462.83 752.84 438.78
            1161.84 462.83 1397.76 438.78
            1742.76 462.83 h 110 V 680.9200000000001 H -580.92 Z" fill="#000000"></path></g></svg>